<svg width="304" height="303" viewBox="0 0 304 303" fill="none" xmlns="http://www.w3.org/2000/svg">
<path d="M276.425 42.4254C277.372 44.0319 277.372 44.0319 276.736 45.8675C276.231 46.9718 276.231 46.9718 275.715 48.0984C275.361 48.8957 275.007 49.693 274.642 50.5144C274.293 51.291 273.944 52.0676 273.584 52.8678C271.407 57.7752 270.148 62.5301 269.256 67.7249C268.849 69.7362 268.849 69.7362 267.902 71.3428C266.116 82.6512 265.706 93.9329 265.761 105.329C265.771 107.837 265.761 110.343 265.749 112.85C265.738 125.952 266.84 138.825 268.953 151.801C269.966 158.424 270.083 164.982 270.043 171.655C270.033 173.651 270.043 175.647 270.055 177.643C270.08 201.841 264.605 223.229 251.803 244.847C267.806 240.885 282.983 235.124 296.422 226.697C300.795 223.962 300.795 223.962 303.889 223.962C292.778 235.464 281.323 245.102 266.955 253.683C266.07 254.22 265.185 254.758 264.273 255.312C255.127 260.567 244.605 264.215 234.224 267.339C229.952 268.749 227.142 270.938 223.843 273.592C219.328 277.017 214.234 279.778 209.187 282.6C208.035 283.259 208.035 283.259 206.86 283.931C190.971 292.564 170.999 297.553 152.481 299.992C150.992 300.2 149.508 300.434 148.027 300.682C140.021 301.968 132.134 302.165 124.014 302.13C123.329 302.129 122.645 302.127 121.94 302.126C110.435 302.09 99.2519 301.452 87.9678 299.469C87.3022 299.353 86.6366 299.237 85.9508 299.117C56.7515 293.83 30.5015 282.537 7.47095 266.535C8.09598 266.27 8.72102 266.005 9.36499 265.732C10.8573 266.33 12.3099 266.999 13.745 267.69C36.5053 277.632 61.712 281.172 87.0208 281.245C88.139 281.249 88.139 281.249 89.2797 281.253C104.244 281.27 120.363 281.028 134.372 276.174C136.232 275.777 138.093 275.38 139.958 274.999C168.725 268.774 196.584 253.858 211.912 232.006C214.963 227.364 217.327 222.48 219.604 217.536C219.913 216.888 220.222 216.24 220.54 215.572C225.103 205.132 226.239 193.328 226.847 182.296C226.96 180.389 227.074 178.482 227.187 176.575C227.361 173.608 227.533 170.641 227.698 167.674C228.636 150.985 230.017 134.332 234.283 117.982C234.567 116.824 234.567 116.824 234.856 115.643C236.047 110.922 237.602 106.417 239.491 101.867C240.001 100.578 240.508 99.2882 241.012 97.9979C242.399 94.4679 243.786 90.9379 245.174 87.408C245.799 87.408 255.193 68.1297 255.837 68.1297C255.193 70.8608 256.462 65.479 255.837 68.1297C256.462 68.1297 254.888 68.5816 255.532 68.5816C255.611 67.9095 251.014 78.0314 251.096 77.339C252.83 73.9765 253.555 71.4529 255.532 68.5816C255.908 68.0254 256.284 67.4693 256.672 66.8964C262.546 58.336 269.025 50.0943 276.425 42.4254Z" fill="#F17756"/>
<path d="M55.536 152.3C65.4464 158.123 73.1005 164.91 79.5445 173.526C83.1265 177.999 87.7936 181.4 92.6437 184.854C96.4861 187.657 99.5069 190.856 102.654 194.214C105.727 197.388 109.002 200.378 112.307 203.378C114.808 205.649 117.262 207.936 119.634 210.307C136.952 227.12 157.035 238.113 181.723 245.651C180.48 248.813 178.22 249.737 175.035 251.424C174.155 251.896 174.155 251.896 173.258 252.377C166.537 255.91 159.518 258.871 152.365 261.716C151.453 262.093 150.541 262.47 149.602 262.858C148.815 263.16 148.027 263.463 147.216 263.774C146.573 264.024 145.929 264.273 145.266 264.53C137.892 265.77 131.879 263.457 125.553 260.461C124.765 260.096 123.977 259.731 123.166 259.356C94.5659 245.948 76.5295 226.874 60.0135 203.448C54.9503 196.27 50.004 189.296 43.4577 182.996C42.7338 182.295 42.0099 181.594 41.2641 180.872C37.693 177.464 34.0984 174.089 30.1994 170.947C29.6232 170.472 29.047 169.997 28.4534 169.507C20.3131 163.04 10.6167 158.535 0.841744 154.079C0.841744 153.549 -1.05222 153.698 0.841744 152.472C18.5132 141.038 37.3943 142.325 55.536 152.3Z" fill="#08596A"/>
<path d="M145.44 0.203953C146.401 0.136649 147.362 0.069344 148.352 0C152.402 0.866079 153.989 2.38308 156.629 5.0585C159.294 8.85964 158.911 12.7894 158.8 17.1022C158.801 18.0904 158.802 19.0785 158.803 20.0965C158.799 22.7889 158.766 25.4789 158.72 28.1709C158.678 30.9903 158.674 33.8097 158.666 36.6293C158.646 41.9606 158.592 47.2912 158.525 52.6223C158.451 58.6947 158.414 64.7673 158.381 70.84C158.312 83.3246 158.195 95.8086 158.047 108.293C157.167 108.17 156.287 108.046 155.38 107.919C150.627 107.343 145.854 107.207 141.06 107.038C140.142 107.003 139.223 106.968 138.277 106.933C136.028 106.848 133.78 106.766 131.531 106.686C131.376 93.9153 131.259 81.1445 131.187 68.373C131.153 62.4426 131.107 56.5125 131.031 50.5823C130.965 45.4117 130.922 40.2414 130.907 35.0705C130.899 32.334 130.878 29.5984 130.83 26.8621C130.782 23.8023 130.775 20.7443 130.778 17.6843C130.754 16.7835 130.731 15.8828 130.706 14.9547C130.766 9.42882 131.913 6.54243 136.551 2.5987C139.436 0.55493 141.734 0.389312 145.44 0.203953Z" fill="#F58761"/>
<path d="M113.537 20.7373C117.076 22.287 119.324 24.2018 121.176 27.1807C122.416 30.5343 122.317 33.6744 122.29 37.1689C122.292 37.9281 122.294 38.6874 122.296 39.4697C122.299 41.9736 122.289 44.4774 122.279 46.9814C122.278 48.7206 122.277 50.4598 122.277 52.1991C122.276 55.8399 122.268 59.4807 122.255 63.1215C122.239 67.7992 122.236 72.4768 122.236 77.1546C122.236 80.7433 122.231 84.3319 122.224 87.9206C122.221 89.6463 122.219 91.3719 122.218 93.0976C122.216 95.5016 122.208 97.9056 122.198 100.31C122.199 101.389 122.199 101.389 122.199 102.49C122.169 107.398 122.169 107.398 121.113 108.293C117.813 108.847 114.501 109.329 111.184 109.811C107.459 110.475 104.028 111.592 100.485 112.766C98.8291 113.314 98.8291 113.314 97.1396 113.872C95.8809 114.291 95.8809 114.291 94.5968 114.719C94.5082 103.491 94.4417 92.2633 94.4005 81.0353C94.3808 75.8217 94.3539 70.6083 94.311 65.3948C94.2699 60.3636 94.2472 55.3326 94.2374 50.3013C94.2304 48.3816 94.2167 46.462 94.1963 44.5424C94.1688 41.8539 94.165 39.166 94.1668 36.4774C94.1531 35.6835 94.1395 34.8897 94.1255 34.0717C94.1588 29.3558 94.7479 26.7683 98.3849 23.1471C102.658 19.6129 107.924 19.9655 113.537 20.7373Z" fill="#27919B"/>
<path d="M183.617 30.3765C187.76 32.2013 190.613 34.2544 193.087 37.6059C193.625 40.2179 193.566 42.7899 193.517 45.4355C193.518 46.2195 193.518 47.0036 193.519 47.8114C193.516 50.3977 193.487 52.9832 193.457 55.5694C193.45 57.3646 193.445 59.1598 193.441 60.955C193.426 65.6761 193.389 70.3968 193.347 75.1178C193.309 79.9367 193.291 84.7557 193.272 89.5747C193.232 99.0272 193.167 108.48 193.087 117.932C190.149 117.121 187.326 116.296 184.505 115.221C180.152 113.588 175.576 112.536 171.017 111.399C168.465 110.703 168.465 110.703 167.518 109.899C167.412 107.725 167.369 105.571 167.365 103.396C167.36 102.714 167.356 102.032 167.351 101.33C167.337 99.0623 167.33 96.795 167.325 94.5276C167.32 92.9555 167.314 91.3833 167.309 89.8112C167.299 86.5084 167.293 83.2056 167.29 79.9028C167.285 75.6737 167.262 71.4449 167.235 67.2159C167.218 63.9654 167.213 60.7149 167.211 57.4644C167.208 55.9057 167.201 54.347 167.188 52.7883C167.172 50.6039 167.174 48.42 167.18 46.2356C167.171 45.5932 167.163 44.9508 167.154 44.289C167.199 39.1526 168.686 35.9101 172.904 32.0834C176.72 30.0071 179.208 29.5688 183.617 30.3765Z" fill="#F48660"/>
<path d="M218.657 70.5395C222.949 72.3265 225.146 74.1315 227.18 77.7688C227.465 80.0843 227.601 82.2202 227.591 84.5338C227.596 85.1911 227.601 85.8483 227.606 86.5255C227.612 87.9191 227.611 89.3126 227.603 90.7061C227.595 92.7901 227.622 94.8723 227.652 96.9561C227.696 106.027 226.153 114.018 223.392 122.751C222.764 125.303 222.232 127.861 221.735 130.433C221.616 131.022 221.498 131.612 221.376 132.22C221.096 133.615 220.823 135.011 220.551 136.407C216.076 133.177 211.67 129.893 207.307 126.554C205.316 125.044 205.316 125.044 202.558 123.555C202.184 121.595 202.184 121.595 202.16 119.098C202.145 118.165 202.13 117.232 202.114 116.271C202.114 115.257 202.114 114.244 202.114 113.2C202.106 112.162 202.099 111.124 202.092 110.054C202.079 107.853 202.078 105.651 202.083 103.45C202.089 100.637 202.06 97.8253 202.021 95.0125C201.991 92.3228 201.995 89.6334 201.995 86.9436C201.98 85.9368 201.964 84.9301 201.948 83.8929C202.021 76.0952 202.021 76.0952 204.842 73.1289C209.192 69.9584 213.076 70.0159 218.657 70.5395Z" fill="#F37B59"/>
<path d="M301.995 223.159C302.932 223.557 302.932 223.557 303.889 223.962C292.779 235.464 281.323 245.102 266.955 253.683C266.07 254.221 265.185 254.758 264.273 255.312C259.062 258.306 253.561 260.581 247.837 262.77C246.773 263.177 246.773 263.177 245.688 263.593C241.156 265.268 236.741 266.425 231.915 267.339C233.967 264.554 236.09 262.117 238.722 259.708C241.384 257.255 243.209 254.765 245.067 251.833C247.867 247.573 250.082 244.568 255.85 243.043C257.787 242.624 259.729 242.226 261.672 241.829C275.372 238.952 291.932 231.694 301.995 223.159Z" fill="#11697A"/>
<path d="M301.995 223.159C302.62 223.424 303.245 223.689 303.889 223.962C300.764 227.143 297.639 230.324 294.419 233.602C294.106 233.071 293.794 232.541 293.472 231.995C292.788 232.393 292.104 232.79 291.4 233.2C288.596 234.468 287.115 234.631 284.001 234.405C287.777 231.784 291.684 229.365 295.662 226.975C296.273 226.606 296.884 226.237 297.513 225.858C299.006 224.957 300.5 224.058 301.995 223.159Z" fill="#358793"/>
<path d="M7.47095 265.732C11.96 267.206 16.339 268.88 20.7293 270.552C19.7917 270.949 19.7917 270.949 18.8352 271.355C18.8352 271.885 18.8352 272.415 18.8352 272.961C14.1872 271.767 10.8756 269.39 7.47095 266.535C7.47095 266.27 7.47095 266.005 7.47095 265.732Z" fill="#EC826C"/>
<path d="M276.425 42.4254C277.372 44.0319 277.372 44.0319 276.636 46.1216C276.274 46.9231 275.911 47.7245 275.537 48.5502C275.177 49.3558 274.817 50.1614 274.446 50.9914C274.162 51.6106 273.877 52.2298 273.584 52.8678C273.272 51.8074 272.959 50.7471 272.637 49.6547C271.387 50.4499 270.137 51.2452 268.849 52.0645C270.184 49.6238 271.774 47.5711 273.703 45.4376C274.468 44.5864 274.468 44.5864 275.249 43.7181C275.637 43.2915 276.025 42.8649 276.425 42.4254Z" fill="#F5B08E"/>
<path d="M238.544 260.109C239.169 260.374 239.795 260.639 240.438 260.912C239.989 261.393 239.54 261.873 239.077 262.368C237.441 264.129 237.441 264.129 236.65 266.535C235.088 266.8 233.525 267.065 231.915 267.339C235.839 262.175 235.839 262.175 238.544 260.109Z" fill="#296570"/>
<path d="M18.8352 271.355C20.0853 271.355 21.3353 271.355 22.6233 271.355C22.6233 271.885 22.6233 272.415 22.6233 272.961C23.5608 273.226 24.4984 273.492 25.4644 273.765C25.1518 274.295 24.8393 274.825 24.5173 275.371C22.6422 274.841 20.7671 274.311 18.8352 273.765C18.8352 272.969 18.8352 272.174 18.8352 271.355Z" fill="#E55C42"/>
<path d="M195.736 137.576C204.988 143.034 211.344 149.875 214.155 159.357C215.791 169.257 212.629 179.128 205.909 187.279C197.487 196.534 187.863 203.069 175.811 208.607C175.144 208.917 174.476 209.227 173.788 209.547C169.612 211.394 166.126 212.29 161.428 212.623C161.579 212.176 161.729 211.728 161.883 211.267C162.412 209.274 162.602 207.436 162.671 205.394C162.707 204.714 162.742 204.035 162.779 203.335C162.233 200.684 161.052 199.812 158.587 198.164C153.382 196.172 147.702 195.675 142.069 195.263C126.943 194.147 111.458 189.288 100.819 179.689C98.7023 177.377 96.8788 174.985 95.1369 172.46C94.5509 171.615 93.965 170.77 93.3613 169.9C91.2651 163.874 90.9379 156.482 94.1011 150.656C101.502 140.006 112.839 133.426 126.692 129.887C129.424 129.295 132.15 128.759 134.912 128.281C135.646 128.142 136.38 128.003 137.137 127.86C156.966 124.836 179.031 128.097 195.736 137.576Z" fill="#609FA7"/>
</svg>